<svg width="94" height="84" viewBox="0 0 94 84" fill="none" xmlns="http://www.w3.org/2000/svg">
<g clip-path="url(#clip0_1624_330)">
<path d="M93.1754 32.1233C93.1417 32.1233 93.1089 32.1131 93.0813 32.0939L47.4733 0.474784C47.3345 0.379009 47.1696 0.327825 47.0007 0.328112C46.8318 0.328399 46.6671 0.380142 46.5286 0.476387L1.24916 32.0936C1.21335 32.1186 1.16902 32.1284 1.12594 32.1209C1.08285 32.1133 1.04453 32.0891 1.01941 32.0534C0.994289 32.0178 0.984424 31.9736 0.991986 31.9308C0.999548 31.8879 1.02392 31.8497 1.05973 31.8247L46.3392 0.207532C46.5331 0.0728087 46.7637 0.000388356 47.0002 1.55755e-06C47.2366 -0.000385241 47.4675 0.0712795 47.6618 0.205368L93.2698 31.8244C93.2986 31.8444 93.3202 31.873 93.3316 31.9061C93.3429 31.9392 93.3433 31.975 93.3328 32.0083C93.3223 32.0417 93.3013 32.0708 93.273 32.0915C93.2447 32.1122 93.2105 32.1233 93.1754 32.1233L93.1754 32.1233Z" fill="#3F3D56"/>
<path d="M3.83655 33.2441L47.0455 1.36572L90.5824 35.5124L49.2719 59.8912L26.8438 54.802L3.83655 33.2441Z" fill="#E6E6E6"/>
<path d="M28.7368 74.949H7.39054C7.25946 74.9491 7.12964 74.9236 7.0085 74.8738C6.88735 74.8239 6.77726 74.7508 6.68452 74.6586C6.59178 74.5664 6.51821 74.4569 6.46801 74.3364C6.41781 74.2159 6.39197 74.0866 6.39197 73.9562C6.39197 73.8257 6.41781 73.6965 6.46801 73.5759C6.51821 73.4554 6.59178 73.3459 6.68452 73.2537C6.77726 73.1615 6.88735 73.0884 7.0085 73.0386C7.12964 72.9888 7.25946 72.9632 7.39054 72.9634H28.7368C28.8679 72.9632 28.9977 72.9888 29.1189 73.0386C29.24 73.0884 29.3501 73.1615 29.4428 73.2537C29.5356 73.3459 29.6092 73.4554 29.6594 73.5759C29.7096 73.6965 29.7354 73.8257 29.7354 73.9562C29.7354 74.0866 29.7096 74.2159 29.6594 74.3364C29.6092 74.4569 29.5356 74.5664 29.4428 74.6586C29.3501 74.7508 29.24 74.8239 29.1189 74.8738C28.9977 74.9236 28.8679 74.9491 28.7368 74.949Z" fill="#BE263B"/>
<path d="M15.0491 70.6806H7.39054C7.25946 70.6808 7.12964 70.6552 7.0085 70.6054C6.88735 70.5556 6.77726 70.4825 6.68452 70.3903C6.59178 70.2981 6.51821 70.1886 6.46801 70.0681C6.41781 69.9475 6.39197 69.8183 6.39197 69.6878C6.39197 69.5574 6.41781 69.4282 6.46801 69.3076C6.51821 69.1871 6.59178 69.0776 6.68452 68.9854C6.77726 68.8932 6.88735 68.8201 7.0085 68.7703C7.12964 68.7205 7.25946 68.6949 7.39054 68.6951H15.0491C15.1802 68.6949 15.31 68.7205 15.4312 68.7703C15.5523 68.8201 15.6624 68.8932 15.7551 68.9854C15.8479 69.0776 15.9214 69.1871 15.9716 69.3076C16.0218 69.4282 16.0477 69.5574 16.0477 69.6878C16.0477 69.8183 16.0218 69.9475 15.9716 70.0681C15.9214 70.1886 15.8479 70.2981 15.7551 70.3903C15.6624 70.4825 15.5523 70.5556 15.4312 70.6054C15.31 70.6552 15.1802 70.6808 15.0491 70.6806Z" fill="#BE263B"/>
<path d="M47.6531 51.0001C47.4908 51.0002 47.3301 50.9689 47.1799 50.9078L20.5316 39.9006V5.44629C20.532 5.14162 20.6537 4.84953 20.8701 4.63409C21.0865 4.41866 21.3799 4.29747 21.686 4.29712H72.8088C73.1148 4.29747 73.4083 4.41866 73.6247 4.63409C73.8411 4.84953 73.9628 5.14162 73.9632 5.44629V39.9247L73.9131 39.946L48.1406 50.9024C47.9862 50.967 47.8205 51.0002 47.6531 51.0001Z" fill="white"/>
<path d="M47.6531 51.0819C47.4801 51.0821 47.3088 51.0487 47.1486 50.9836L20.4492 39.9553V5.44609C20.4496 5.11966 20.58 4.8067 20.8119 4.57588C21.0438 4.34505 21.3581 4.21521 21.6861 4.21484H72.8089C73.1368 4.21521 73.4512 4.34505 73.683 4.57588C73.9149 4.8067 74.0453 5.11966 74.0457 5.44609V39.9787L48.173 50.9777C48.0084 51.0466 47.8317 51.082 47.6531 51.0819ZM20.779 39.736L47.2744 50.6801C47.5215 50.7799 47.7982 50.7782 48.0442 50.6755L73.7159 39.7619V5.44609C73.7156 5.20671 73.62 4.97722 73.4499 4.80795C73.2799 4.63868 73.0493 4.54346 72.8089 4.54318H21.6861C21.4456 4.54346 21.2151 4.63868 21.045 4.80795C20.875 4.97722 20.7793 5.20671 20.779 5.44609L20.779 39.736Z" fill="#3F3D56"/>
<path d="M92.8456 31.7949H92.8126L73.8807 39.8424L47.978 50.853C47.8767 50.8954 47.7681 50.9175 47.6583 50.9181C47.5485 50.9187 47.4397 50.8977 47.338 50.8563L20.614 39.8194L1.21703 31.8081L1.1874 31.7949H1.15439C0.848328 31.7953 0.554902 31.9164 0.338486 32.1319C0.12207 32.3473 0.000339596 32.6394 0 32.9441V82.8508C0.000340031 83.1555 0.12207 83.4476 0.338486 83.663C0.554902 83.8784 0.848328 83.9996 1.15439 84H92.8456C93.1517 83.9996 93.4451 83.8784 93.6615 83.663C93.8779 83.4476 93.9997 83.1555 94 82.8508V32.9441C93.9997 32.6394 93.8779 32.3473 93.6615 32.1319C93.4451 31.9164 93.1517 31.7953 92.8456 31.7949ZM93.6702 82.8508C93.6701 83.0685 93.5832 83.2772 93.4286 83.4311C93.274 83.585 93.0643 83.6715 92.8456 83.6716H1.15439C0.935726 83.6715 0.726047 83.585 0.571431 83.4311C0.416814 83.2772 0.329912 83.0685 0.329825 82.8508V32.9441C0.330124 32.7318 0.412835 32.5279 0.560666 32.3749C0.708496 32.2219 0.910002 32.1318 1.12306 32.1233L20.614 40.174L47.2111 51.16C47.499 51.2766 47.8216 51.2749 48.1082 51.1551L73.8807 40.1986L92.8786 32.1233C93.0913 32.1324 93.2923 32.2228 93.4397 32.3757C93.5871 32.5286 93.6697 32.7322 93.6702 32.9441V82.8508Z" fill="#3F3D56"/>
<path d="M47.3868 41.2299C46.403 41.2317 45.4453 40.9151 44.6581 40.3276L44.6093 40.2912L34.3335 32.4592C33.8576 32.0962 33.4582 31.6434 33.158 31.1268C32.8579 30.6102 32.663 30.0397 32.5843 29.4481C32.5056 28.8564 32.5448 28.2551 32.6995 27.6785C32.8543 27.1019 33.1216 26.5613 33.4862 26.0876C33.8509 25.6138 34.3057 25.2162 34.8247 24.9175C35.3437 24.6187 35.9167 24.4246 36.511 24.3463C37.1054 24.268 37.7094 24.3069 38.2886 24.461C38.8678 24.6151 39.4109 24.8812 39.8868 25.2442L46.5427 30.3248L62.2717 9.90459C62.6365 9.43097 63.0914 9.03351 63.6105 8.73492C64.1296 8.43632 64.7027 8.24243 65.2971 8.16433C65.8914 8.08622 66.4954 8.12543 67.0746 8.27971C67.6537 8.43398 68.1967 8.70031 68.6725 9.06348L68.5747 9.19566L68.675 9.0654C69.6347 9.79965 70.2626 10.8829 70.421 12.0774C70.5794 13.272 70.2553 14.4803 69.5199 15.4373L51.0189 39.4563C50.591 40.0098 50.0407 40.4577 49.4108 40.7653C48.781 41.0729 48.0883 41.2318 47.3868 41.2299Z" fill="#BE263B"/>
</g>
<defs>
<clipPath id="clip0_1624_330">
<rect width="94" height="84" fill="white"/>
</clipPath>
</defs>
</svg>
