<svg width="270" height="270" viewBox="0 0 270 270" fill="none" xmlns="http://www.w3.org/2000/svg">
<path d="M270 206.496H0V206.631H270V206.496Z" fill="#EBEBEB"/>
<path d="M170.462 210.173H156.713V210.308H170.462V210.173Z" fill="#EBEBEB"/>
<path d="M245.938 213.095H213.359V213.23H245.938V213.095Z" fill="#EBEBEB"/>
<path d="M153.787 210.238H120.128V210.373H153.787V210.238Z" fill="#EBEBEB"/>
<path d="M98.3016 214.277H91.26V214.412H98.3016V214.277Z" fill="#EBEBEB"/>
<path d="M137.209 214.277H105.143V214.412H137.209V214.277Z" fill="#EBEBEB"/>
<path d="M49.0914 211.999H28.3284V212.134H49.0914V211.999Z" fill="#EBEBEB"/>
<path d="M127.98 182.412H23.7114C22.8946 182.411 22.1117 182.085 21.5346 181.507C20.9575 180.929 20.6334 180.145 20.6334 179.329V32.7564C20.6405 31.9442 20.9678 31.1677 21.5441 30.5954C22.1204 30.0231 22.8992 29.7013 23.7114 29.7H127.98C128.798 29.7 129.582 30.0248 130.16 30.6031C130.739 31.1813 131.063 31.9656 131.063 32.7834V179.329C131.063 180.146 130.739 180.931 130.16 181.509C129.582 182.087 128.798 182.412 127.98 182.412ZM23.7114 29.808C22.9304 29.8094 22.1818 30.1206 21.63 30.6734C21.0783 31.2262 20.7684 31.9753 20.7684 32.7564V179.329C20.7684 180.11 21.0783 180.859 21.63 181.411C22.1818 181.964 22.9304 182.276 23.7114 182.277H127.98C128.762 182.276 129.511 181.964 130.063 181.412C130.616 180.859 130.927 180.11 130.928 179.329V32.7564C130.927 31.9748 130.616 31.2257 130.063 30.6731C129.511 30.1205 128.762 29.8094 127.98 29.808H23.7114Z" fill="#EBEBEB"/>
<path d="M244.787 182.412H140.513C139.696 182.411 138.913 182.085 138.335 181.507C137.757 180.929 137.431 180.146 137.43 179.329V32.7564C137.439 31.9437 137.767 31.1672 138.344 30.5951C138.921 30.0229 139.701 29.7013 140.513 29.7H244.787C245.599 29.7028 246.376 30.0252 246.951 30.5973C247.526 31.1694 247.853 31.9451 247.86 32.7564V179.329C247.86 180.144 247.537 180.927 246.961 181.505C246.385 182.083 245.603 182.409 244.787 182.412ZM140.513 29.808C139.732 29.8094 138.983 30.1205 138.43 30.6731C137.878 31.2257 137.566 31.9748 137.565 32.7564V179.329C137.566 180.11 137.878 180.859 138.43 181.412C138.983 181.964 139.732 182.276 140.513 182.277H244.787C245.569 182.276 246.318 181.964 246.871 181.412C247.423 180.859 247.734 180.11 247.736 179.329V32.7564C247.734 31.9748 247.423 31.2257 246.871 30.6731C246.318 30.1205 245.569 29.8094 244.787 29.808H140.513Z" fill="#EBEBEB"/>
<path d="M105.818 159.662H69.9624L67.7862 134.552H103.642L105.818 159.662Z" fill="#E6E6E6"/>
<path d="M107.676 159.662H71.82L69.6438 134.552H105.5L107.676 159.662Z" fill="#F0F0F0"/>
<path d="M76.7232 154.267L75.5244 139.941H100.597L101.795 154.267H76.7232Z" fill="white"/>
<path d="M113.881 159.662H109.674V206.496H113.881V159.662Z" fill="#E6E6E6"/>
<path d="M115.209 159.662H112.288V206.496H115.209V159.662Z" fill="#F0F0F0"/>
<path d="M74.4876 164.83H115.209V159.662H74.4876V164.83Z" fill="#F0F0F0"/>
<path d="M75.924 164.83H71.7174V206.496H75.924V164.83Z" fill="#E6E6E6"/>
<path d="M77.2524 164.83H74.331V206.496H77.2524V164.83Z" fill="#F0F0F0"/>
<path d="M45.981 164.83H41.7744V206.496H45.981V164.83Z" fill="#E6E6E6"/>
<path d="M47.3094 164.83H44.388V206.496H47.3094V164.83Z" fill="#F0F0F0"/>
<path d="M87.2586 164.83H83.052V206.496H87.2586V164.83Z" fill="#E6E6E6"/>
<path d="M88.5816 164.83H85.6602V206.496H88.5816V164.83Z" fill="#F0F0F0"/>
<path d="M74.4876 159.662H41.7744V164.83H74.4876V159.662Z" fill="#E6E6E6"/>
<path d="M196.474 42.8813H69.9354V113.33H196.474V42.8813Z" fill="#E0E0E0"/>
<path d="M203.423 42.8813H70.5726V113.33H203.423V42.8813Z" fill="#F5F5F5"/>
<path d="M201.253 111.159V45.0522L72.7434 45.0522V111.159L201.253 111.159Z" fill="white"/>
<path d="M124.778 111.159L149.04 45.0522H108.999L84.7368 111.159H124.778Z" fill="#F5F5F5"/>
<path d="M163.318 111.159L187.58 45.0522H157.372L133.11 111.159H163.318Z" fill="#F5F5F5"/>
<path d="M236.579 139.212H225.823V206.496H236.579V139.212Z" fill="#E6E6E6"/>
<path d="M233.75 206.496H236.579V201.317H230.785L233.75 206.496Z" fill="#FAFAFA"/>
<path d="M137.403 139.212H126.646V206.496H137.403V139.212Z" fill="#E6E6E6"/>
<path d="M236.579 139.212H134.935V205.098H236.579V139.212Z" fill="#FAFAFA"/>
<path d="M234.657 160.472H136.863V141.863H234.657V160.472ZM137.403 159.932H234.117V142.403H137.403V159.932Z" fill="#E6E6E6"/>
<path d="M217.442 150.898H155.974C153.122 150.898 150.374 148.597 148.414 144.58L148.23 144.196H225.18L224.996 144.58C223.02 148.597 220.32 150.898 217.442 150.898ZM149.116 144.72C150.941 148.3 153.436 150.342 155.974 150.342H217.442C219.991 150.342 222.475 148.3 224.3 144.72H149.116Z" fill="#E6E6E6"/>
<path d="M137.765 206.496H134.935V201.317H140.729L137.765 206.496Z" fill="#FAFAFA"/>
<path d="M234.657 181.44H136.863V162.853H234.657V181.44ZM137.403 180.9H234.117V163.393H137.403V180.9Z" fill="#E6E6E6"/>
<path d="M217.442 171.887H155.974C153.122 171.887 150.374 169.582 148.414 165.569L148.23 165.181H225.18L224.996 165.569C223.02 169.56 220.32 171.887 217.442 171.887ZM149.116 165.721C150.941 169.301 153.436 171.347 155.974 171.347H217.442C219.991 171.347 222.475 169.301 224.3 165.721H149.116Z" fill="#E6E6E6"/>
<path d="M234.657 202.446H136.863V183.838H234.657V202.446ZM137.403 201.906H234.117V184.378H137.403V201.906Z" fill="#E6E6E6"/>
<path d="M217.442 192.872H155.974C153.122 192.872 150.374 190.571 148.414 186.559L148.23 186.17H225.18L224.996 186.559C223.02 190.571 220.32 192.872 217.442 192.872ZM149.116 186.71C150.941 190.29 153.436 192.332 155.974 192.332H217.442C219.991 192.332 222.475 190.29 224.3 186.71H149.116Z" fill="#E6E6E6"/>
<path d="M65.3292 148.111V149.418H64.4976L63.8064 159.662H53.6328L52.947 149.418H52.11V148.111H65.3292Z" fill="#E6E6E6"/>
<path d="M61.9812 122.694C61.1496 116.592 52.9146 114.853 42.4656 114.626C32.5242 114.415 29.3382 110.9 29.3382 110.9C29.3382 110.9 29.3706 125.14 43.6968 130.302C57.2994 135.195 62.8182 128.806 61.9812 122.694Z" fill="#E6E6E6"/>
<path d="M56.9052 136.523C57.078 134.017 61.0848 129.406 70.7238 131.501C77.6898 133.018 80.2818 129.406 80.2818 129.406C80.2818 129.406 79.6338 139.601 69.1578 142.662C59.2056 145.573 56.5974 140.94 56.9052 136.523Z" fill="#E6E6E6"/>
<path d="M59.103 151.956C59.1573 151.956 59.211 151.945 59.2604 151.923C59.3099 151.9 59.3538 151.867 59.3892 151.826C60.0858 151 59.5134 149.024 58.725 146.286C57.7098 142.776 56.4462 138.402 57.5154 135.232C58.108 133.558 58.8005 131.92 59.589 130.329C61.101 127.132 62.4078 124.389 61.317 121.484C61.3 121.437 61.274 121.395 61.2405 121.359C61.207 121.323 61.1666 121.294 61.1218 121.273C61.077 121.253 61.0286 121.242 60.9794 121.24C60.9301 121.238 60.8811 121.247 60.835 121.264C60.789 121.282 60.7469 121.308 60.7111 121.342C60.6754 121.376 60.6467 121.416 60.6267 121.461C60.6068 121.506 60.5959 121.555 60.5948 121.604C60.5937 121.653 60.6024 121.702 60.6204 121.748C61.5978 124.335 60.4152 126.84 58.914 130.016C58.1155 131.633 57.4123 133.295 56.808 134.994C55.6686 138.386 56.9646 142.884 58.0068 146.491C58.6224 148.651 59.2596 150.811 58.8222 151.351C58.7875 151.388 58.7609 151.432 58.7441 151.481C58.7274 151.529 58.7208 151.58 58.7249 151.631C58.729 151.681 58.7436 151.731 58.7677 151.776C58.7919 151.82 58.8252 151.86 58.8654 151.891C58.9344 151.94 59.0186 151.963 59.103 151.956Z" fill="#E6E6E6"/>
<path d="M135 230.882C192.825 230.882 239.701 228.146 239.701 224.77C239.701 221.394 192.825 218.657 135 218.657C77.1755 218.657 30.2994 221.394 30.2994 224.77C30.2994 228.146 77.1755 230.882 135 230.882Z" fill="#F5F5F5"/>
<path d="M134.978 194.967H58.2984L54.1026 71.647H130.783L134.978 194.967Z" fill="#BE263B"/>
<path d="M138.807 191.138H62.127L57.9258 67.8184H134.606L138.807 191.138Z" fill="#BE263B"/>
<path opacity="0.3" d="M138.807 191.138H62.127L57.9258 67.8184H134.606L138.807 191.138Z" fill="white"/>
<path d="M113.115 118.564C121.325 110.213 120.976 96.5558 112.335 88.0612C103.694 79.5666 90.0331 79.4509 81.8229 87.8028C73.6126 96.1547 73.9619 109.812 82.6031 118.306C91.2442 126.801 104.905 126.916 113.115 118.564Z" fill="#BE263B"/>
<path d="M115.274 103.188C115.384 106.127 114.743 109.045 113.411 111.666C111.973 114.491 109.776 116.86 107.067 118.506C104.359 120.153 101.245 121.012 98.0748 120.987C94.8305 120.969 91.6479 120.099 88.8461 118.463C86.0444 116.827 83.7222 114.483 82.1124 111.666C80.6114 109.085 79.7728 106.173 79.6716 103.188C79.572 100.875 79.9438 98.5646 80.7646 96.3988C81.5853 94.2331 82.8378 92.2569 84.4459 90.5902C86.054 88.9235 87.9841 87.6012 90.1191 86.7035C92.2541 85.8058 94.5493 85.3516 96.8652 85.3684C101.636 85.4021 106.211 87.2725 109.639 90.591C113.067 93.9094 115.085 98.4209 115.274 103.188Z" fill="white"/>
<path opacity="0.6" d="M113.4 111.666C111.962 114.492 109.766 116.86 107.057 118.506C104.348 120.153 101.234 121.012 98.064 120.987C94.8197 120.969 91.6371 120.099 88.8354 118.463C86.0337 116.827 83.7114 114.483 82.1016 111.666C86.6685 108.553 92.0724 106.898 97.5996 106.92C103.216 106.932 108.707 108.582 113.4 111.666Z" fill="#BE263B"/>
<path opacity="0.6" d="M103.017 102.744C106.036 99.6732 105.907 94.6515 102.73 91.5279C99.5525 88.4044 94.5294 88.3619 91.5104 91.433C88.4914 94.504 88.6198 99.5258 91.7972 102.649C94.9746 105.773 99.9978 105.815 103.017 102.744Z" fill="#BE263B"/>
<path d="M123.401 146.48H74.4876L74.1582 136.76H123.071L123.401 146.48Z" fill="white"/>
<path d="M123.995 163.852H75.0762L74.7468 154.132H123.665L123.995 163.852Z" fill="white"/>
<path d="M105.116 155.471L93.3282 157.091C93.2157 157.104 93.1071 157.14 93.0092 157.197C92.9113 157.254 92.8262 157.33 92.7592 157.421C92.6923 157.513 92.6449 157.617 92.6202 157.727C92.5954 157.838 92.5938 157.952 92.6154 158.063L94.1652 165.963C94.2159 166.195 94.3515 166.4 94.5454 166.537C94.7393 166.673 94.9773 166.733 95.2128 166.703L107.001 165.083C107.113 165.069 107.221 165.032 107.319 164.974C107.416 164.917 107.5 164.839 107.567 164.748C107.633 164.656 107.68 164.552 107.704 164.441C107.729 164.331 107.73 164.217 107.708 164.106L106.164 156.206C106.113 155.974 105.977 155.77 105.783 155.634C105.589 155.498 105.351 155.44 105.116 155.471ZM101.731 163.474L99.5706 163.76L99.36 161.211C99.1374 161.115 98.9413 160.967 98.7881 160.779C98.6349 160.591 98.5291 160.369 98.4798 160.131C98.4401 159.947 98.4395 159.757 98.4779 159.573C98.5164 159.389 98.593 159.215 98.703 159.062C98.8129 158.909 98.9536 158.781 99.1161 158.687C99.2786 158.592 99.4592 158.532 99.6462 158.511C100.03 158.462 100.418 158.558 100.734 158.781C101.05 159.004 101.271 159.338 101.353 159.716C101.399 159.944 101.385 160.18 101.311 160.401C101.237 160.622 101.106 160.82 100.931 160.974L101.731 163.474Z" fill="#BE263B"/>
<path d="M103.95 155.044C103.742 155.071 103.531 155.019 103.359 154.898C103.187 154.777 103.067 154.596 103.021 154.391L102.87 153.619C102.654 152.565 102.064 151.625 101.208 150.974C100.352 150.322 99.2884 150.004 98.2152 150.076C97.6736 150.107 97.1451 150.254 96.6654 150.508C96.1857 150.761 95.7661 151.114 95.4352 151.544C95.1043 151.974 94.8697 152.47 94.7475 152.999C94.6252 153.527 94.6182 154.076 94.7268 154.607L94.8996 155.498C94.9197 155.597 94.919 155.699 94.8975 155.797C94.876 155.896 94.8341 155.988 94.7747 156.07C94.7152 156.151 94.6394 156.219 94.5521 156.269C94.4648 156.32 94.368 156.351 94.2678 156.362C94.059 156.391 93.8469 156.34 93.6745 156.219C93.5021 156.097 93.3821 155.915 93.339 155.709L93.1932 154.958C93.0449 154.257 93.04 153.532 93.1787 152.829C93.3175 152.125 93.597 151.457 94.0005 150.865C94.404 150.272 94.9232 149.767 95.5269 149.38C96.1305 148.993 96.8062 148.732 97.5132 148.613C99.0462 148.356 100.619 148.698 101.907 149.57C103.194 150.442 104.096 151.776 104.425 153.295L104.598 154.18C104.618 154.28 104.617 154.384 104.594 154.483C104.572 154.582 104.529 154.676 104.468 154.758C104.406 154.839 104.329 154.907 104.239 154.956C104.15 155.006 104.052 155.036 103.95 155.044Z" fill="#BE263B"/>
<path d="M115.922 177.466H84.078L83.8674 171.137H115.706L115.922 177.466Z" fill="#BE263B"/>
<path d="M100.559 141.62C100.568 141.851 100.531 142.081 100.449 142.297C100.367 142.513 100.241 142.71 100.081 142.876C99.9202 143.042 99.7276 143.174 99.5146 143.264C99.3016 143.353 99.0726 143.398 98.8416 143.397C98.3654 143.393 97.9089 143.207 97.5662 142.876C97.2236 142.545 97.0209 142.096 97.0002 141.62C96.9907 141.389 97.0281 141.159 97.1103 140.943C97.1925 140.727 97.3176 140.53 97.4782 140.364C97.6388 140.198 97.8314 140.066 98.0444 139.977C98.2574 139.887 98.4864 139.842 98.7174 139.844C99.1939 139.846 99.6512 140.032 99.9942 140.363C100.337 140.694 100.539 141.144 100.559 141.62Z" fill="#263238"/>
<path d="M92.88 141.62C92.8903 141.851 92.8534 142.082 92.7715 142.298C92.6896 142.514 92.5645 142.712 92.4037 142.878C92.243 143.044 92.0501 143.176 91.8367 143.265C91.6233 143.354 91.394 143.399 91.1628 143.397C90.6872 143.393 90.2312 143.206 89.8894 142.876C89.5476 142.545 89.3462 142.095 89.3268 141.62C89.3173 141.389 89.3547 141.159 89.4369 140.943C89.5191 140.727 89.6442 140.53 89.8048 140.364C89.9654 140.198 90.158 140.066 90.371 139.977C90.584 139.887 90.813 139.842 91.044 139.844C91.52 139.846 91.9767 140.032 92.3188 140.363C92.6608 140.694 92.8619 141.144 92.88 141.62Z" fill="#263238"/>
<path d="M85.2498 141.62C85.2593 141.851 85.2218 142.081 85.1397 142.297C85.0575 142.513 84.9323 142.71 84.7718 142.876C84.6112 143.042 84.4186 143.174 84.2056 143.264C83.9926 143.353 83.7636 143.398 83.5326 143.397C83.0566 143.394 82.5999 143.208 82.2578 142.877C81.9157 142.546 81.7147 142.096 81.6966 141.62C81.6871 141.389 81.7245 141.159 81.8067 140.943C81.8889 140.727 82.014 140.53 82.1746 140.364C82.3352 140.198 82.5278 140.066 82.7408 139.977C82.9538 139.887 83.1828 139.842 83.4138 139.844C83.8898 139.846 84.3465 140.032 84.6886 140.363C85.0306 140.694 85.2317 141.144 85.2498 141.62Z" fill="#263238"/>
<path d="M108.211 141.62C108.22 141.851 108.183 142.081 108.1 142.297C108.018 142.513 107.893 142.71 107.733 142.876C107.572 143.042 107.379 143.174 107.166 143.264C106.953 143.353 106.724 143.398 106.493 143.397C106.017 143.394 105.561 143.208 105.219 142.877C104.877 142.546 104.675 142.096 104.657 141.62C104.649 141.39 104.688 141.161 104.771 140.946C104.855 140.731 104.981 140.536 105.142 140.371C105.303 140.206 105.495 140.076 105.708 139.988C105.921 139.9 106.15 139.857 106.38 139.86C106.852 139.863 107.305 140.048 107.646 140.375C107.986 140.703 108.189 141.148 108.211 141.62Z" fill="#263238"/>
<path d="M115.862 141.62C115.873 141.851 115.836 142.082 115.754 142.298C115.672 142.514 115.547 142.712 115.386 142.878C115.225 143.044 115.032 143.176 114.819 143.265C114.606 143.354 114.376 143.399 114.145 143.397C113.67 143.393 113.214 143.206 112.872 142.876C112.53 142.545 112.329 142.095 112.309 141.62C112.3 141.389 112.337 141.159 112.419 140.943C112.501 140.727 112.627 140.53 112.787 140.364C112.948 140.198 113.14 140.066 113.353 139.977C113.566 139.887 113.795 139.842 114.026 139.844C114.502 139.846 114.959 140.032 115.301 140.363C115.643 140.694 115.844 141.144 115.862 141.62Z" fill="#263238"/>
<path d="M180.311 94.1113C181.03 95.2669 181.629 96.3685 182.245 97.5187C182.86 98.6689 183.416 99.8245 183.962 101.007C185.075 103.402 185.996 105.881 186.716 108.421C186.813 108.74 186.883 109.08 186.964 109.41L187.083 109.912L187.142 110.16L187.213 110.571C187.334 111.502 187.278 112.447 187.045 113.357C186.672 114.769 186.105 116.123 185.36 117.38C184.028 119.664 182.417 121.773 180.565 123.66L178.292 121.943C179.433 119.845 180.448 117.681 181.332 115.463C181.726 114.485 182.003 113.465 182.158 112.423C182.208 112.104 182.193 111.779 182.115 111.467L181.899 110.808C181.813 110.538 181.732 110.268 181.629 109.993C180.808 107.765 179.857 105.587 178.783 103.47C177.703 101.31 176.542 99.1495 175.381 97.0867L180.311 94.1113Z" fill="#FF8B7B"/>
<path d="M178.87 121.192L176.386 122.504L179.237 125.842C179.237 125.842 181.019 124.637 181.1 122.801L178.87 121.192Z" fill="#FF8B7B"/>
<path d="M173.054 124.562L176.105 126.986L179.237 125.842L176.386 122.504L173.054 124.562Z" fill="#FF8B7B"/>
<path d="M162.621 76.4426C162.562 76.745 162.351 76.9556 162.157 76.9178C161.962 76.88 161.849 76.5992 161.908 76.3022C161.968 76.0052 162.178 75.7622 162.378 75.827C162.578 75.8918 162.68 76.1402 162.621 76.4426Z" fill="#263238"/>
<path d="M162.378 76.9609C161.834 77.8068 161.176 78.5736 160.423 79.2398C160.601 79.4241 160.817 79.5678 161.055 79.661C161.294 79.7542 161.55 79.7947 161.806 79.7798L162.378 76.9609Z" fill="#FF5652"/>
<path d="M161.406 87.5556V84.0132L166.093 84.5532C166.093 84.5532 166.018 87.5988 163.393 88.4952L161.406 87.5556Z" fill="#FF8B7B"/>
<path d="M162.756 81.4644L166.055 82.4148L166.115 84.5802L161.428 84.0132L162.756 81.4644Z" fill="#FF8B7B"/>
<path opacity="0.2" d="M166.055 82.4148L162.756 81.4644L162.113 82.6956C162.148 83.6657 162.452 84.6071 162.989 85.4154C163.527 86.2238 164.278 86.8673 165.159 87.2748C165.726 86.4829 166.057 85.5469 166.115 84.5748L166.055 82.4148Z" fill="black"/>
<path d="M164.057 75.0004C164.092 74.9995 164.126 74.9888 164.154 74.9695C164.183 74.9503 164.206 74.9233 164.22 74.8917C164.234 74.8601 164.239 74.8251 164.234 74.7909C164.229 74.7566 164.215 74.7244 164.192 74.698C164.003 74.4838 163.765 74.3181 163.498 74.2148C163.231 74.1114 162.943 74.0735 162.659 74.104C162.612 74.1119 162.571 74.138 162.543 74.1764C162.516 74.2149 162.505 74.2627 162.513 74.3092C162.521 74.3561 162.547 74.398 162.585 74.4262C162.623 74.4544 162.671 74.4667 162.718 74.4604C162.944 74.4383 163.171 74.4704 163.381 74.554C163.592 74.6376 163.779 74.7703 163.928 74.941C163.944 74.959 163.964 74.9736 163.987 74.9838C164.009 74.994 164.033 74.9996 164.057 75.0004Z" fill="#263238"/>
<path d="M170.959 81.9072C170.419 84.6882 170.084 88.5384 172.039 90.3906C172.039 90.3906 171.283 93.2094 166.099 93.2094C160.423 93.2094 163.372 90.7362 163.372 90.7362C165.731 90.0018 165.71 87.318 165.17 85.158L170.959 81.9072Z" fill="#FF8B7B"/>
<path d="M173.092 92.2482C173.599 91.5354 173.578 89.2728 173.038 88.8732C172.168 88.2306 168.437 88.0794 163.42 89.235C163.96 91.4274 162.799 92.5722 162.799 92.5722L173.092 92.2482Z" fill="#BE263B"/>
<path d="M189.972 220.45C189.818 220.504 189.655 220.527 189.491 220.518C189.328 220.508 189.169 220.467 189.022 220.396C188.966 220.344 188.928 220.276 188.912 220.201C188.897 220.127 188.905 220.049 188.935 219.98C188.952 219.921 188.982 219.867 189.022 219.822C189.062 219.776 189.112 219.74 189.167 219.715C189.68 219.467 190.858 219.947 190.912 219.969C190.928 219.975 190.941 219.987 190.951 220.001C190.961 220.016 190.966 220.033 190.966 220.05C190.965 220.067 190.961 220.084 190.952 220.099C190.944 220.114 190.932 220.127 190.917 220.136C190.612 220.27 190.296 220.375 189.972 220.45ZM189.351 219.839C189.315 219.848 189.281 219.86 189.248 219.877C189.215 219.889 189.184 219.91 189.16 219.936C189.136 219.962 189.118 219.994 189.108 220.028C189.059 220.19 189.108 220.244 189.14 220.261C189.346 220.433 190.102 220.261 190.636 220.061C190.23 219.892 189.791 219.817 189.351 219.839Z" fill="#BE263B"/>
<path d="M190.895 220.142H190.852C190.42 220.018 189.502 219.364 189.491 218.938C189.491 218.87 189.514 218.804 189.556 218.751C189.598 218.698 189.657 218.661 189.724 218.646C189.788 218.622 189.856 218.613 189.924 218.618C189.992 218.624 190.059 218.644 190.118 218.679C190.625 218.938 190.949 219.985 190.96 220.034C190.968 220.047 190.972 220.062 190.972 220.077C190.972 220.092 190.968 220.107 190.96 220.12C190.952 220.129 190.942 220.135 190.93 220.139C190.919 220.143 190.907 220.144 190.895 220.142ZM189.815 218.797H189.772C189.664 218.835 189.664 218.889 189.664 218.916C189.664 219.17 190.28 219.683 190.744 219.888C190.631 219.586 190.382 218.986 190.053 218.808C189.98 218.775 189.897 218.771 189.821 218.797H189.815Z" fill="#BE263B"/>
<path d="M161.924 221.087C161.438 221.087 160.969 221.017 160.812 220.801C160.771 220.743 160.749 220.674 160.749 220.604C160.749 220.533 160.771 220.464 160.812 220.406C160.843 220.354 160.884 220.308 160.933 220.272C160.983 220.235 161.039 220.21 161.098 220.196C161.73 220.023 163.058 220.779 163.112 220.811C163.129 220.82 163.142 220.833 163.15 220.85C163.158 220.866 163.16 220.885 163.156 220.903C163.154 220.922 163.146 220.939 163.133 220.953C163.12 220.966 163.104 220.975 163.085 220.979C162.702 221.049 162.314 221.085 161.924 221.087ZM161.325 220.347C161.268 220.338 161.209 220.338 161.152 220.347C161.116 220.355 161.081 220.369 161.05 220.391C161.02 220.412 160.994 220.44 160.974 220.471C160.909 220.585 160.936 220.639 160.974 220.671C161.152 220.919 162.108 220.925 162.815 220.822C162.354 220.57 161.848 220.409 161.325 220.347Z" fill="#BE263B"/>
<path d="M163.08 220.979H163.042C162.583 220.773 161.676 219.953 161.746 219.521C161.746 219.418 161.833 219.294 162.081 219.272C162.17 219.262 162.26 219.27 162.345 219.296C162.431 219.322 162.51 219.365 162.578 219.423C162.924 219.837 163.132 220.349 163.172 220.887C163.172 220.902 163.168 220.917 163.162 220.931C163.155 220.945 163.146 220.958 163.134 220.968C163.117 220.976 163.099 220.98 163.08 220.979ZM162.151 219.44H162.097C161.935 219.44 161.924 219.515 161.924 219.537C161.881 219.796 162.497 220.444 162.967 220.725C162.925 220.291 162.75 219.882 162.464 219.553C162.376 219.477 162.262 219.437 162.146 219.44H162.151Z" fill="#BE263B"/>
<path d="M167.249 220.892H163.453L163.075 212.096H166.871L167.249 220.892Z" fill="#FF8B7B"/>
<path d="M195.129 219.132L191.419 219.937L187.688 211.745L191.403 210.94L195.129 219.132Z" fill="#FF8B7B"/>
<path d="M191.057 219.564L195.232 218.662C195.305 218.647 195.381 218.656 195.447 218.69C195.514 218.723 195.567 218.778 195.599 218.846L197.046 221.989C197.085 222.065 197.104 222.149 197.104 222.234C197.104 222.319 197.083 222.403 197.045 222.479C197.006 222.555 196.949 222.621 196.88 222.671C196.811 222.72 196.731 222.753 196.646 222.766C195.188 223.052 194.459 223.123 192.629 223.517C191.5 223.765 188.951 224.386 187.391 224.721C185.83 225.056 185.296 223.56 185.906 223.285C188.633 222.037 189.767 220.941 190.507 219.92C190.64 219.738 190.836 219.611 191.057 219.564Z" fill="#263238"/>
<path d="M163.48 220.45H167.627C167.702 220.45 167.775 220.476 167.834 220.523C167.893 220.57 167.934 220.636 167.951 220.709L168.701 224.084C168.723 224.165 168.726 224.251 168.709 224.334C168.692 224.417 168.656 224.494 168.603 224.56C168.551 224.626 168.483 224.679 168.406 224.715C168.33 224.75 168.246 224.767 168.161 224.764C166.666 224.737 164.506 224.651 162.626 224.651C160.423 224.651 158.528 224.77 155.947 224.77C154.386 224.77 153.954 223.193 154.607 223.047C157.577 222.399 160.007 222.329 162.572 220.747C162.842 220.566 163.156 220.464 163.48 220.45Z" fill="#263238"/>
<path d="M178.832 91.2599C182.39 92.0753 185.312 101.164 185.312 101.164L178.2 106.601C176.354 104.628 175.052 102.209 174.42 99.5813C173.162 94.8185 175.192 90.4176 178.832 91.2599Z" fill="#BE263B"/>
<path opacity="0.4" d="M178.832 91.2599C182.39 92.0753 185.312 101.164 185.312 101.164L178.2 106.601C176.354 104.628 175.052 102.209 174.42 99.5813C173.162 94.8185 175.192 90.4176 178.832 91.2599Z" fill="black"/>
<path d="M160.11 102.098C159.224 103.054 158.339 103.907 157.41 104.798C156.951 105.23 156.487 105.662 156.011 106.078L155.293 106.709L155.115 106.866L154.807 107.114C154.49 107.367 154.14 107.575 153.765 107.73C153.348 107.907 152.9 107.999 152.447 108C152.061 108.002 151.676 107.934 151.313 107.8C150.911 107.647 150.543 107.413 150.233 107.114C149.838 106.728 149.548 106.246 149.391 105.716C149.309 105.454 149.256 105.184 149.234 104.911C149.206 104.591 149.206 104.27 149.234 103.95C149.261 103.691 149.294 103.464 149.337 103.253C149.485 102.517 149.694 101.794 149.963 101.093C150.206 100.427 150.486 99.7743 150.8 99.1385C151.146 98.4527 151.475 97.9505 151.805 97.3781C153.143 95.1864 154.67 93.1157 156.368 91.1897C158.049 89.2751 159.902 87.5182 161.903 85.9409L163.89 87.9875C162.497 89.8559 161.125 91.8593 159.856 93.8303C158.593 95.7901 157.439 97.8182 156.4 99.9053C156.168 100.413 155.86 100.985 155.714 101.396C155.521 101.872 155.354 102.359 155.212 102.854C155.076 103.299 154.973 103.754 154.904 104.215C154.901 104.286 154.901 104.359 154.904 104.431C154.904 104.474 154.904 104.495 154.904 104.382C154.896 104.261 154.872 104.141 154.834 104.026C154.717 103.643 154.503 103.297 154.213 103.021C153.955 102.784 153.652 102.6 153.322 102.481C153.032 102.371 152.725 102.315 152.415 102.314C152.117 102.31 151.821 102.367 151.546 102.481C151.452 102.519 151.362 102.564 151.276 102.616L151.481 102.427L152.134 101.833L153.425 100.624C154.278 99.8189 155.137 98.9603 155.947 98.1611L160.11 102.098Z" fill="#FF8B7B"/>
<path opacity="0.2" d="M175.781 97.9343C177.714 99.8459 178.346 103.334 178.481 106.358L178.168 106.601C176.322 104.628 175.019 102.209 174.388 99.5813C174.317 99.3005 174.253 99.0413 174.204 98.7335L175.781 97.9343Z" fill="black"/>
<path d="M156.335 95.0399C155.558 99.1439 155.072 107.573 157.324 124.259H177.66C177.8 121.143 175.84 105.926 178.848 91.2329C176.601 90.8013 174.328 90.5145 172.044 90.3743C169.166 90.2092 166.282 90.2092 163.404 90.3743C162.454 90.4607 161.514 90.6011 160.704 90.7469C159.627 90.9358 158.632 91.4475 157.852 92.2141C157.072 92.9807 156.543 93.9661 156.335 95.0399Z" fill="#BE263B"/>
<path opacity="0.4" d="M156.335 95.0399C155.558 99.1439 155.072 107.573 157.324 124.259H177.66C177.8 121.143 175.84 105.926 178.848 91.2329C176.601 90.8013 174.328 90.5145 172.044 90.3743C169.166 90.2092 166.282 90.2092 163.404 90.3743C162.454 90.4607 161.514 90.6011 160.704 90.7469C159.627 90.9358 158.632 91.4475 157.852 92.2141C157.072 92.9807 156.543 93.9661 156.335 95.0399Z" fill="black"/>
<path opacity="0.2" d="M159.446 101.126L155.774 100.245C155.66 102.47 155.65 105.224 155.812 108.632C157.502 106.709 159.662 103.707 159.446 101.126Z" fill="black"/>
<path opacity="0.2" d="M163.075 212.096L163.269 216.632H167.071L166.876 212.096H163.075Z" fill="black"/>
<path opacity="0.2" d="M191.403 210.94L187.688 211.745L189.61 215.968L193.325 215.163L191.403 210.94Z" fill="black"/>
<path d="M172.762 77.8465C171.79 81.4861 171.401 83.6677 169.155 85.1797C165.78 87.4801 161.568 84.8449 161.46 81.0001C161.341 77.5279 162.956 72.1549 166.86 71.4205C167.718 71.2595 168.603 71.3196 169.431 71.5951C170.259 71.8707 171.004 72.3527 171.594 72.9956C172.185 73.6385 172.602 74.4212 172.806 75.2698C173.011 76.1185 172.995 77.0053 172.762 77.8465Z" fill="#FF8B7B"/>
<path d="M164.241 77.9814C164.057 77.4954 163.22 73.7316 164.009 72.7542C164.797 71.7768 173.788 72.4842 175.117 73.791C177.325 75.951 175.792 77.895 173.378 80.3952C171.563 82.2744 171.493 84.3912 170.575 84.7152C168.955 85.2552 166.482 84.7476 165.985 83.0358C165.488 81.324 164.241 77.9814 164.241 77.9814Z" fill="#263238"/>
<path d="M174.026 69.5088C170.851 68.1588 164.894 69.6546 161.676 68.877C161.635 70.0737 162.029 71.2448 162.784 72.1739C163.539 73.103 164.605 73.7273 165.785 73.9314C168.455 74.4401 171.168 74.6915 173.885 74.682C177.417 74.52 176.726 70.659 174.026 69.5088Z" fill="#263238"/>
<path d="M174.523 73.9043C175.682 74.0184 176.851 73.7953 177.887 73.2617C178.481 74.6981 175.214 75.0923 174.523 73.9043Z" fill="#263238"/>
<path d="M165.969 78.1325C165.896 79.0689 165.516 79.9553 164.889 80.6542C164.057 81.5668 163.193 80.9944 163.048 79.8874C162.918 78.8831 163.188 77.1874 164.203 76.7014C165.218 76.2154 166.039 77.0039 165.969 78.1325Z" fill="#FF8B7B"/>
<path d="M164.533 124.275C164.533 124.275 168.853 153.3 171.212 164.176C173.799 176.083 187.699 215.476 187.699 215.476L194.497 214.002C194.497 214.002 184.777 181.893 182.617 165.245C180.943 152.458 177.655 124.265 177.655 124.265L164.533 124.275Z" fill="#BE263B"/>
<path d="M186.068 213.213C186.041 213.213 187.337 215.676 187.337 215.676L194.983 214.018L194.341 211.718L186.068 213.213Z" fill="#263238"/>
<path opacity="0.3" d="M167.26 134.617C172.244 135.594 171.715 154.181 171.115 163.744C169.679 156.984 167.573 143.98 166.136 134.752C166.484 134.58 166.881 134.532 167.26 134.617Z" fill="black"/>
<path d="M157.324 124.276C157.324 124.276 156.784 152.674 157.216 164.236C157.648 176.283 161.854 215.73 161.854 215.73H168.291C168.291 215.73 168.523 176.985 168.831 165.154C169.144 152.258 170.699 124.254 170.699 124.254L157.324 124.276Z" fill="#BE263B"/>
<path d="M160.618 213.192C160.585 213.192 160.979 215.859 160.979 215.859H168.804L169.02 213.478L160.618 213.192Z" fill="#263238"/>
<path d="M164.295 96.3036C166.115 101.212 155.417 106.996 155.417 106.996L150.784 101.056C150.784 101.056 153.9 94.8889 157.68 92.1133C162.351 88.6897 162.907 92.5669 164.295 96.3036Z" fill="#BE263B"/>
<path opacity="0.4" d="M164.295 96.3036C166.115 101.212 155.417 106.996 155.417 106.996L150.784 101.056C150.784 101.056 153.9 94.8889 157.68 92.1133C162.351 88.6897 162.907 92.5669 164.295 96.3036Z" fill="black"/>
<path d="M206.21 59.0382C216.973 59.0382 225.698 53.4776 225.698 46.6182C225.698 39.7589 216.973 34.1982 206.21 34.1982C195.447 34.1982 186.721 39.7589 186.721 46.6182C186.721 53.4776 195.447 59.0382 206.21 59.0382Z" fill="#BE263B"/>
<path d="M199.179 52.8714C197.895 52.8673 196.654 52.4108 195.673 51.5822C194.692 50.7536 194.035 49.6059 193.817 48.3408C193.602 46.9704 193.911 45.5694 194.683 44.4166C195.454 43.2639 196.631 42.4439 197.98 42.12C199.087 41.865 200.246 41.9633 201.294 42.4011C202.342 42.8389 203.227 43.5942 203.823 44.5608L216.335 41.9796C216.816 41.8743 217.318 41.9542 217.743 42.2035C218.167 42.4528 218.482 42.853 218.624 43.3242C218.69 43.5719 218.704 43.8304 218.666 44.0839C218.629 44.3373 218.539 44.5804 218.404 44.7982C218.27 45.0161 218.092 45.2041 217.881 45.3508C217.671 45.4976 217.434 45.5999 217.183 45.6516L216.859 45.7164C216.81 45.725 216.765 45.7446 216.726 45.7736C216.686 45.8027 216.654 45.8404 216.632 45.8838C216.612 45.9279 216.601 45.9758 216.601 46.0242C216.601 46.0726 216.612 46.1205 216.632 46.1646L216.853 46.737C216.927 46.9225 216.935 47.1281 216.873 47.3184C216.812 47.5086 216.687 47.6716 216.518 47.7792C216.386 47.8612 216.273 47.9724 216.19 48.1044C216.107 48.2363 216.055 48.3855 216.038 48.5406C216.022 48.7186 215.95 48.887 215.833 49.0219C215.715 49.1567 215.559 49.2509 215.384 49.2912L215.131 49.3452C214.955 49.3777 214.773 49.3534 214.612 49.2757C214.451 49.198 214.318 49.0711 214.234 48.9132C214.122 48.7249 213.954 48.5762 213.753 48.4879C213.553 48.3996 213.33 48.3761 213.115 48.4207C212.901 48.4653 212.705 48.5757 212.556 48.7366C212.408 48.8975 212.313 49.1008 212.285 49.3182C212.27 49.4951 212.199 49.6626 212.082 49.7965C211.966 49.9305 211.81 50.0239 211.637 50.0634L211.383 50.1174C211.207 50.1491 211.026 50.1243 210.865 50.0467C210.704 49.9692 210.571 49.8427 210.487 49.6854C210.406 49.5515 210.297 49.4367 210.167 49.3491C210.038 49.2614 209.89 49.203 209.736 49.1778C209.528 49.1528 209.337 49.0529 209.198 48.8968C209.059 48.7407 208.981 48.5391 208.98 48.33V47.7144C208.978 47.6662 208.965 47.6191 208.943 47.5763C208.921 47.5334 208.89 47.4958 208.852 47.4661C208.814 47.4364 208.77 47.4152 208.723 47.404C208.676 47.3928 208.628 47.3918 208.58 47.4012L204.59 48.222C204.427 49.3276 203.928 50.3561 203.159 51.1678C202.391 51.9794 201.392 52.5347 200.297 52.758C199.929 52.8332 199.554 52.8712 199.179 52.8714ZM198.099 42.6114C196.874 42.8975 195.803 43.637 195.102 44.6811C194.401 45.7251 194.121 46.9961 194.319 48.2382C194.531 49.3937 195.15 50.4351 196.064 51.1739C196.977 51.9128 198.125 52.3003 199.299 52.2663C200.474 52.2324 201.597 51.7793 202.467 50.989C203.336 50.1986 203.894 49.1233 204.039 47.9574V47.763L208.44 46.872C208.566 46.8415 208.698 46.8394 208.825 46.866C208.952 46.8926 209.072 46.9472 209.175 47.0258C209.278 47.1044 209.363 47.205 209.423 47.3204C209.482 47.4358 209.516 47.563 209.52 47.6928V48.3084C209.521 48.3817 209.548 48.4523 209.595 48.5084C209.642 48.5645 209.707 48.6025 209.779 48.6162C210.015 48.65 210.241 48.7371 210.438 48.8709C210.635 49.0047 210.8 49.1817 210.919 49.3884C210.947 49.4467 210.993 49.4946 211.05 49.5256C211.107 49.5565 211.173 49.569 211.237 49.5612L211.486 49.5072C211.549 49.491 211.605 49.4549 211.645 49.4043C211.686 49.3538 211.71 49.2914 211.712 49.2264C211.746 48.8902 211.886 48.5736 212.112 48.3223C212.338 48.0709 212.638 47.8979 212.969 47.8281C213.299 47.7584 213.643 47.7956 213.951 47.9344C214.26 48.0731 214.516 48.3062 214.682 48.6C214.71 48.6578 214.755 48.7056 214.811 48.7366C214.867 48.7675 214.932 48.7802 214.996 48.7728L215.255 48.7188C215.317 48.7016 215.372 48.6651 215.411 48.6146C215.451 48.5641 215.474 48.5023 215.476 48.438C215.503 48.2009 215.583 47.9731 215.712 47.7718C215.84 47.5706 216.012 47.4014 216.216 47.277C216.275 47.2341 216.319 47.1725 216.34 47.1021C216.36 47.0317 216.356 46.9564 216.329 46.8882L216.108 46.3158C216.062 46.1978 216.043 46.0712 216.051 45.9449C216.059 45.8186 216.095 45.6956 216.156 45.5845C216.216 45.4735 216.3 45.377 216.402 45.3018C216.504 45.2266 216.621 45.1746 216.745 45.1494L217.075 45.0792C217.253 45.0412 217.422 44.9676 217.571 44.8629C217.72 44.7581 217.846 44.6244 217.943 44.4696C218.039 44.3148 218.103 44.1422 218.131 43.9621C218.159 43.782 218.151 43.5981 218.106 43.4214C218.001 43.0816 217.771 42.7942 217.462 42.6169C217.154 42.4396 216.789 42.3856 216.443 42.4656L203.58 45.1386L203.483 44.9712C202.966 44.0512 202.164 43.3244 201.197 42.9006C200.231 42.4768 199.153 42.3791 198.126 42.6222L198.099 42.6114ZM199.179 50.8626C198.508 50.8701 197.85 50.6825 197.284 50.3226C196.614 49.883 196.118 49.2247 195.879 48.46C195.64 47.6954 195.674 46.8716 195.975 46.1292C196.276 45.3868 196.825 44.7717 197.529 44.3888C198.232 44.0058 199.047 43.8788 199.834 44.0293C200.62 44.1798 201.331 44.5985 201.843 45.214C202.356 45.8296 202.639 46.6038 202.645 47.4048C202.65 48.2059 202.378 48.984 201.874 49.6067C201.37 50.2293 200.666 50.6579 199.881 50.8194C199.651 50.861 199.418 50.8791 199.184 50.8734L199.179 50.8626ZM199.179 44.4852C198.978 44.4863 198.777 44.5062 198.58 44.5446C198.203 44.6247 197.847 44.7782 197.53 44.9962C197.213 45.2142 196.942 45.4924 196.733 45.8151C196.523 46.1378 196.38 46.4985 196.31 46.8768C196.24 47.255 196.245 47.6433 196.325 48.0195C196.405 48.3957 196.559 48.7524 196.777 49.0693C196.995 49.3862 197.273 49.6571 197.596 49.8664C197.918 50.0758 198.279 50.2195 198.657 50.2894C199.036 50.3594 199.424 50.3541 199.8 50.274C200.365 50.1564 200.882 49.8743 201.287 49.4632C201.691 49.052 201.965 48.5303 202.074 47.9638C202.182 47.3972 202.121 46.8112 201.897 46.2796C201.673 45.748 201.296 45.2946 200.815 44.9766C200.337 44.6586 199.775 44.4912 199.201 44.496L199.179 44.4852Z" fill="white"/>
<path opacity="0.6" d="M190.35 66.323C193.887 66.323 196.754 64.4953 196.754 62.2406C196.754 59.986 193.887 58.1582 190.35 58.1582C186.813 58.1582 183.946 59.986 183.946 62.2406C183.946 64.4953 186.813 66.323 190.35 66.323Z" fill="#BE263B"/>
<path opacity="0.3" d="M180.16 67.9967C181.613 67.9967 182.79 67.2472 182.79 66.3227C182.79 65.3982 181.613 64.6487 180.16 64.6487C178.708 64.6487 177.53 65.3982 177.53 66.3227C177.53 67.2472 178.708 67.9967 180.16 67.9967Z" fill="#BE263B"/>
</svg>
