<svg width="51" height="56" viewBox="0 0 51 56" fill="none" xmlns="http://www.w3.org/2000/svg">
<path d="M34.1115 7.99987H28.8498C28.1479 7.177 27.2464 6.54737 26.2105 6.23287C25.3379 5.96812 24.6663 5.25937 24.4153 4.3385C23.7325 1.83287 21.5445 0 18.9507 0C16.3571 0 14.1692 1.83288 13.4865 4.33825C13.2352 5.26025 12.5619 5.96812 11.6883 6.23375C10.6536 6.5485 9.75282 7.1775 9.05152 7.99987H3.79017C1.69681 7.99987 0 9.79075 0 11.9999V47.9997C0 50.2089 1.69681 51.9997 3.79017 51.9997H25.1134C24.6348 51.371 24.2058 50.7006 23.8202 49.9997H3.79017C2.74515 49.9997 1.89509 49.1025 1.89509 47.9997V11.9999C1.89509 10.8971 2.74515 9.99987 3.79017 9.99987H7.90511C7.7002 10.6114 7.58555 11.2677 7.58058 11.952V15.9999H30.3214V11.9999C30.3214 11.298 30.2039 10.626 29.994 9.99987H34.1115C35.1564 9.99987 36.0065 10.8971 36.0065 11.9999V21.9999H37.9016V11.9999C37.9016 9.79075 36.2048 7.99987 34.1115 7.99987ZM28.426 13.9997H9.47554V11.9677C9.48857 10.2095 10.6143 8.642 12.213 8.15575C13.7184 7.698 14.8752 6.4775 15.3076 4.89125C15.7716 3.18875 17.2697 2 18.9507 2C20.6319 2 22.13 3.18875 22.5938 4.89125C23.0264 6.4785 24.1825 7.69862 25.6865 8.155C27.2994 8.64462 28.426 10.2257 28.426 11.9997V13.9997Z" fill="#BE263B"/>
<path d="M18.9794 7.5C19.7644 7.5 20.4007 6.82843 20.4007 6C20.4007 5.17157 19.7644 4.5 18.9794 4.5C18.1944 4.5 17.5581 5.17157 17.5581 6C17.5581 6.82843 18.1944 7.5 18.9794 7.5Z" fill="#BE263B"/>
<path d="M48.3195 31.3932L49.6595 32.8075L50.9996 31.3932L46.9794 27.1506L45.6393 28.5649L46.9794 29.9791L45.6074 31.4271C43.5042 29.5027 40.8256 28.271 37.8767 28.0505V26H39.7718V24H34.0865V26H35.9816V28.0505C29.0994 28.5651 23.6636 34.6057 23.6636 42C23.6636 49.7319 29.6029 56 36.9292 56C44.2557 56 50.1948 49.7319 50.1948 42C50.1948 38.4941 48.9652 35.2974 46.9474 32.8412L48.3195 31.3932ZM48.2997 41.9999C48.2997 48.6166 43.1988 53.9999 36.9292 53.9999C30.6595 53.9999 25.5587 48.6166 25.5587 41.9999C25.5587 35.3831 30.6595 29.9999 36.9292 29.9999C43.1988 29.9999 48.2997 35.3831 48.2997 41.9999Z" fill="#BE263B"/>
<path d="M42.9501 34.2395L35.7905 41.7954L37.1191 43.1976L44.2788 35.6416L42.9501 34.2395Z" fill="#BE263B"/>
<path d="M36.9418 34.0431C37.4719 34.0431 37.9017 33.5896 37.9017 33.0301C37.9017 32.4706 37.4719 32.0171 36.9418 32.0171C36.4117 32.0171 35.9819 32.4706 35.9819 33.0301C35.9819 33.5896 36.4117 34.0431 36.9418 34.0431Z" fill="#BE263B"/>
<path d="M30.8915 36.6581C31.4216 36.6581 31.8514 36.2045 31.8514 35.6451C31.8514 35.0856 31.4216 34.6321 30.8915 34.6321C30.3614 34.6321 29.9316 35.0856 29.9316 35.6451C29.9316 36.2045 30.3614 36.6581 30.8915 36.6581Z" fill="#BE263B"/>
<path d="M28.3934 43.0231C28.9236 43.0231 29.3533 42.5695 29.3533 42.0101C29.3533 41.4506 28.9236 40.9971 28.3934 40.9971C27.8633 40.9971 27.4336 41.4506 27.4336 42.0101C27.4336 42.5695 27.8633 43.0231 28.3934 43.0231Z" fill="#BE263B"/>
<path d="M30.8915 49.3829C31.4216 49.3829 31.8514 48.9294 31.8514 48.3699C31.8514 47.8105 31.4216 47.3569 30.8915 47.3569C30.3614 47.3569 29.9316 47.8105 29.9316 48.3699C29.9316 48.9294 30.3614 49.3829 30.8915 49.3829Z" fill="#BE263B"/>
<path d="M36.9213 52.0231C37.4514 52.0231 37.8811 51.5695 37.8811 51.0101C37.8811 50.4506 37.4514 49.9971 36.9213 49.9971C36.3912 49.9971 35.9614 50.4506 35.9614 51.0101C35.9614 51.5695 36.3912 52.0231 36.9213 52.0231Z" fill="#BE263B"/>
<path d="M31.6717 21H8.08838V23.0741H31.6717V21Z" fill="#BE263B"/>
<path d="M8.08838 27.2219V29.296H27.2147L29.18 27.2219H8.08838Z" fill="#BE263B"/>
<path d="M8.08838 33.4441V35.5182H21.3185L23.2839 33.4441H8.08838Z" fill="#BE263B"/>
<path d="M17.9148 39.6667H8.08838V41.7408H17.9148V39.6667Z" fill="#BE263B"/>
</svg>
