<svg width="51" height="56" viewBox="0 0 51 56" fill="none" xmlns="http://www.w3.org/2000/svg">
<path d="M25.5298 8.07698C26.3423 8.07698 27.0009 7.35374 27.0009 6.46158C27.0009 5.56943 26.3423 4.84619 25.5298 4.84619C24.7173 4.84619 24.0586 5.56943 24.0586 6.46158C24.0586 7.35374 24.7173 8.07698 25.5298 8.07698Z" fill="#BE263B"/>
<path d="M45.1156 12.923C45.1156 10.5439 43.3593 8.61529 41.1926 8.61529H35.7464C35.0199 7.72911 34.0867 7.05105 33.0144 6.71236C32.1113 6.42724 31.4161 5.66397 31.1564 4.67225C30.4496 1.97401 28.1849 0 25.5001 0C22.8155 0 20.5509 1.97388 19.8442 4.67198C19.5841 5.66491 18.8873 6.42724 17.983 6.71344C16.912 7.0524 15.9796 7.72979 15.2537 8.61529H9.80786C7.64109 8.61529 5.88477 10.5439 5.88477 12.923V51.6923C5.88477 54.0714 7.64109 56 9.80786 56C18.8146 56 29.8841 56 41.1926 56C43.3594 56 45.1157 54.0714 45.1157 51.6923C45.1157 39.4585 45.1156 27.7438 45.1156 12.923ZM15.6926 12.8883C15.7061 10.9948 16.8713 9.30668 18.5262 8.78302C20.0844 8.29006 21.2818 6.97567 21.7293 5.26739C22.2095 3.43406 23.7601 2.15386 25.5001 2.15386C27.2403 2.15386 28.7909 3.43406 29.271 5.26753C29.7187 6.97688 30.9153 8.29087 32.4721 8.78235C34.1416 9.30964 35.3077 11.0124 35.3077 12.9229V15.0767H15.6926V12.8883ZM41.1926 53.8461C30.7161 53.8461 20.2568 53.8461 9.80786 53.8461C8.72619 53.8461 7.84631 52.8799 7.84631 51.6923V12.923C7.84631 11.7354 8.72619 10.7691 9.80786 10.7691H14.0671C13.855 11.4277 13.7364 12.1346 13.7312 12.8714V17.2307H37.2695V12.923C37.2695 12.1671 37.1479 11.4434 36.9307 10.7691H41.1926C42.2742 10.7691 43.1541 11.7354 43.1541 12.923C43.1541 19.0807 43.1539 47.9574 43.1543 51.6923C43.1542 52.8799 42.2743 53.8461 41.1926 53.8461Z" fill="#BE263B"/>
<path d="M37.2697 23.6924H19.6157V25.8462H37.2697V23.6924Z" fill="#BE263B"/>
<path d="M37.2697 30.1541H19.6157V32.3079H37.2697V30.1541Z" fill="#BE263B"/>
<path d="M37.2697 36.6157H19.6157V38.7696H37.2697V36.6157Z" fill="#BE263B"/>
<path d="M37.2697 43.0771H19.6157V45.231H37.2697V43.0771Z" fill="#BE263B"/>
<path d="M14.7112 25.8462C15.2529 25.8462 15.692 25.3641 15.692 24.7693C15.692 24.1745 15.2529 23.6924 14.7112 23.6924C14.1696 23.6924 13.7305 24.1745 13.7305 24.7693C13.7305 25.3641 14.1696 25.8462 14.7112 25.8462Z" fill="#BE263B"/>
<path d="M14.7112 32.3079C15.2529 32.3079 15.692 31.8258 15.692 31.231C15.692 30.6362 15.2529 30.1541 14.7112 30.1541C14.1696 30.1541 13.7305 30.6362 13.7305 31.231C13.7305 31.8258 14.1696 32.3079 14.7112 32.3079Z" fill="#BE263B"/>
<path d="M14.7112 38.7696C15.2529 38.7696 15.692 38.2874 15.692 37.6927C15.692 37.0979 15.2529 36.6157 14.7112 36.6157C14.1696 36.6157 13.7305 37.0979 13.7305 37.6927C13.7305 38.2874 14.1696 38.7696 14.7112 38.7696Z" fill="#BE263B"/>
<path d="M14.7112 45.231C15.2529 45.231 15.692 44.7488 15.692 44.1541C15.692 43.5593 15.2529 43.0771 14.7112 43.0771C14.1696 43.0771 13.7305 43.5593 13.7305 44.1541C13.7305 44.7488 14.1696 45.231 14.7112 45.231Z" fill="#BE263B"/>
</svg>
